<?xml version="1.0" encoding="utf-8"?>
<!-- Generated by IcoMoon.io -->
<!DOCTYPE svg PUBLIC "-//W3C//DTD SVG 1.1//EN" "http://www.w3.org/Graphics/SVG/1.1/DTD/svg11.dtd">
<svg version="1.1" xmlns="http://www.w3.org/2000/svg" xmlns:xlink="http://www.w3.org/1999/xlink" width="1024" height="1024" viewBox="0 0 1024 1024">
<g id="icomoon-ignore">
</g>
<path fill="#000" d="M256.219 320h543.562c53.467 0 96.219 42.963 96.219 95.961v224.078c0 53.009-43.079 95.961-96.219 95.961h-543.562c-53.467 0-96.219-42.963-96.219-95.961v-224.078c0-53.009 43.079-95.961 96.219-95.961zM255.826 352c-35.25 0-63.826 28.806-63.826 63.745v224.511c0 35.205 28.875 63.745 63.826 63.745h544.348c35.25 0 63.826-28.806 63.826-63.745v-224.511c0-35.205-28.875-63.745-63.826-63.745h-544.348zM416 544v64h-64.006c-17.795 0-31.994-14.324-31.994-31.994v-96.012c0-17.795 14.324-31.994 31.994-31.994h96.006v-32h-95.844c-35.432 0-64.156 28.37-64.156 64.189v95.621c0 35.451 28.605 64.189 64.156 64.189h95.844v-128h-96v32h64zM512 448v160h-32v32h96v-32h-32v-160h32v-32h-96v32h32zM640 512v-64h128v-32h-160v224h32v-96h96v-32h-96z"></path>
</svg>


