<?xml version="1.0" encoding="utf-8"?>
<!-- Svg Vector Icons : http://www.onlinewebfonts.com/icon -->
<!DOCTYPE svg PUBLIC "-//W3C//DTD SVG 1.1//EN" "http://www.w3.org/Graphics/SVG/1.1/DTD/svg11.dtd">
<svg version="1.1" xmlns="http://www.w3.org/2000/svg" xmlns:xlink="http://www.w3.org/1999/xlink" x="0px" y="0px" viewBox="0 0 1000 1000" enable-background="new 0 0 1000 1000" xml:space="preserve">
<metadata> Svg Vector Icons : http://www.onlinewebfonts.com/icon </metadata>
<g><g><g><path d="M521.3,393.5h-85.2v85.2h85.2c25.6,0,42.6-17,42.6-42.6S546.9,393.5,521.3,393.5z"/><path d="M862.2,223H137.8C65.4,223,10,278.4,10,350.9v298.3C10,721.6,65.4,777,137.8,777h724.3c72.4,0,127.8-55.4,127.8-127.8V350.9C990,278.4,934.6,223,862.2,223z M350.9,649.1h-42.6v-213l-42.6,85.2h-21.3H223l-42.6-85.2v213h-42.6V350.9h21.3h21.3l63.9,127.8l63.9-127.8h21.3h21.3V649.1z M521.3,521.3h-85.2v127.8h-42.6v-213v-85.2h127.8c46.9,0,85.2,38.3,85.2,85.2C606.5,483,568.2,521.3,521.3,521.3z M862.2,563.9h-42.6v85.2H777v-85.2H649.1v-42.6L777,350.9h42.6v170.4h42.6V563.9z"/><polygon points="777,521.3 777,414.8 700.3,521.3 "/></g></g><g></g><g></g><g></g><g></g><g></g><g></g><g></g><g></g><g></g><g></g><g></g><g></g><g></g><g></g><g></g></g>
</svg>
